<?xml version="1.0" encoding="utf-8"?>
<!-- Generator: Adobe Illustrator 24.2.3, SVG Export Plug-In . SVG Version: 6.00 Build 0)  -->
<svg version="1.1" id="Capa_1" xmlns="http://www.w3.org/2000/svg" xmlns:xlink="http://www.w3.org/1999/xlink" x="0px" y="0px"
	 viewBox="0 0 78.7 90" style="enable-background:new 0 0 78.7 90;" xml:space="preserve">
<style type="text/css">
	.st0{fill:url(#SVGID_1_);}
	.st1{fill:url(#SVGID_2_);}
	.st2{fill:url(#SVGID_3_);}
	.st3{fill:url(#SVGID_4_);}
</style>
<g id="_x33_c824d88-52fa-4221-8e4f-52e2737bb114" transform="matrix(1.0173859316671514,0,0,1.0173859316671514,-11.320310292342576,-5.100334210059401)">
	
		<linearGradient id="SVGID_1_" gradientUnits="userSpaceOnUse" x1="-645.447" y1="571.9978" x2="-644.447" y2="571.9978" gradientTransform="matrix(49.6449 13.2258 23.1498 -28.3627 18820.8125 24808.041)">
		<stop  offset="0" style="stop-color:#0015D6"/>
		<stop  offset="1" style="stop-color:#0989FB"/>
	</linearGradient>
	<path class="st0" d="M30.8,43.5h-7.7v15.4h15.4V43.5H30.8z M34.6,51.2V55h-7.7v-7.7h7.7L34.6,51.2L34.6,51.2z M53.8,58.9h-7.7v3.8
		h-3.8v11.5h3.8v-7.7h7.7v7.7h3.8V62.7h-3.8V58.9z M69.2,43.5h-7.7v15.4h15.4V43.5H69.2z M73.1,51.2V55h-7.7v-7.7h7.7L73.1,51.2
		L73.1,51.2z"/>
	
		<linearGradient id="SVGID_2_" gradientUnits="userSpaceOnUse" x1="-653.0629" y1="579.5036" x2="-652.0629" y2="579.5036" gradientTransform="matrix(70.9086 38.0356 33.0652 -81.5677 27149.4668 72134.3203)">
		<stop  offset="0" style="stop-color:#0015D6"/>
		<stop  offset="1" style="stop-color:#0989FB"/>
	</linearGradient>
	<path class="st1" d="M84.6,28.1v-3.9h-3.8v-7.7h-3.8v-3.8h-7.7V8.9h-7.7V5H38.5v3.8h-7.7v3.9h-7.7v3.8h-3.8v7.7h-3.9v3.9h-3.8v38.5
		h3.8v3.8h3.9v3.8h3.8v3.9h7.7v15.4h38.5V78.1h7.7v-3.9h3.8v-3.8h3.8v-3.8h3.8V28.1L84.6,28.1L84.6,28.1z M84.6,35.8v26.9h-3.8v3.8
		h-3.8v3.8h-3.8v3.8h-7.7v15.4h-7.7v-7.7h-3.8v7.7h-7.7v-7.7h-3.8v7.7h-7.7V74.2h-7.7v-3.8h-3.9v-3.8h-3.8v-3.8h-3.9V31.9h3.9v-3.8
		h3.8v-7.7h3.9v-3.9h7.7v-3.8h7.7V8.9h15.4v3.9h7.7v3.8h7.7v3.9h3.8v7.7h3.8v3.8h3.8L84.6,35.8L84.6,35.8z"/>
</g>
<g id="_x33_c824d88-52fa-4221-8e4f-52e2737bb114_1_" transform="matrix(1.0173859316671514,0,0,1.0173859316671514,-11.320310292342576,-5.100334210059401)">
	
		<linearGradient id="SVGID_3_" gradientUnits="userSpaceOnUse" x1="-645.4542" y1="571.9948" x2="-644.4542" y2="571.9948" gradientTransform="matrix(49.6449 13.2258 23.1498 -28.3627 18820.8125 24808.041)">
		<stop  offset="0" style="stop-color:#0015D6"/>
		<stop  offset="1" style="stop-color:#0989FB"/>
	</linearGradient>
	<path class="st2" d="M30.3,43.5h-7.7v15.4H38V43.5H30.3z M34.2,51.2V55h-7.7v-7.7h7.7L34.2,51.2L34.2,51.2z M53.4,58.8h-7.7v3.8
		h-3.8v11.5h3.8v-7.7h7.7v7.7h3.8V62.7h-3.8V58.8z M68.8,43.5h-7.7v15.4h15.4V43.5H68.8z M72.6,51.2V55H65v-7.7h7.7L72.6,51.2
		L72.6,51.2z"/>
	
		<linearGradient id="SVGID_4_" gradientUnits="userSpaceOnUse" x1="-653.0679" y1="579.5015" x2="-652.0679" y2="579.5015" gradientTransform="matrix(70.9086 38.0356 33.0652 -81.5677 27149.4668 72134.3203)">
		<stop  offset="0" style="stop-color:#0015D6"/>
		<stop  offset="1" style="stop-color:#0989FB"/>
	</linearGradient>
	<path class="st3" d="M84.2,28.1v-3.9h-3.8v-7.7h-3.8v-3.8h-7.7V8.8h-7.7V5H38v3.8h-7.7v3.9h-7.7v3.8h-3.8v7.7H15v3.9h-3.8v38.5H15
		v3.8h3.9v3.8h3.8v3.9h7.7v15.4h38.5V78.1h7.7v-3.9h3.8v-3.8h3.8v-3.8H88V28.1L84.2,28.1L84.2,28.1z M84.2,35.8v26.9h-3.8v3.8h-3.8
		v3.8h-3.8v3.8H65v15.4h-7.7v-7.7h-3.8v7.7h-7.7v-7.7h-3.8v7.7h-7.7V74.2h-7.7v-3.8h-3.9v-3.8h-3.8v-3.8H15V31.9h3.9v-3.8h3.8v-7.7
		h3.9v-3.9h7.7v-3.8h7.7V8.8h15.4v3.9H65v3.8h7.7v3.9h3.8v7.7h3.8v3.8h3.8L84.2,35.8L84.2,35.8z"/>
</g>
</svg>
