<svg data-v-423bf9ae="" xmlns="http://www.w3.org/2000/svg" viewBox="0 0 546 90" class="iconLeft"><!----><!----><!----><g data-v-423bf9ae="" id="79c729dd-92ec-486a-9881-8e1f2b1d647e" fill="#041F57" transform="matrix(4.521477184796433,0,0,4.521477184796433,92.54195698940558,-2.5433315176150018)"><path d="M2.44 14.35L2.44 10.21L4.82 10.21C6.62 10.21 7.60 9.16 7.60 7.39C7.60 5.63 6.62 4.58 4.82 4.58L1.26 4.58L1.26 14.35ZM2.44 5.60L4.79 5.60C5.77 5.60 6.36 6.12 6.36 7.03L6.36 7.76C6.36 8.67 5.77 9.18 4.79 9.18L2.44 9.18ZM9.52 14.35L15.68 14.35L15.68 13.40L13.16 13.40L13.16 3.99L9.52 3.99L9.52 4.94L12.04 4.94L12.04 13.40L9.52 13.40ZM24.50 14.35L24.50 13.37L23.49 13.37L23.49 9.39C23.49 7.87 22.41 6.96 20.72 6.96C19.25 6.96 18.33 7.66 17.96 8.41L18.72 8.97C19.10 8.32 19.68 7.91 20.65 7.91C21.74 7.91 22.37 8.46 22.37 9.51L22.37 10.22L20.83 10.22C18.66 10.22 17.72 10.99 17.72 12.32C17.72 13.68 18.69 14.52 20.20 14.52C21.38 14.52 22.06 14 22.37 13.17L22.44 13.17C22.53 13.85 22.86 14.35 23.73 14.35ZM20.40 13.58C19.47 13.58 18.90 13.19 18.90 12.45L18.90 12.15C18.90 11.45 19.50 11.06 20.83 11.06L22.37 11.06L22.37 12.25C22.37 12.99 21.55 13.58 20.40 13.58ZM30.52 10.15L29.44 12.89L29.39 12.89L28.31 10.15L27.09 7.13L25.94 7.13L28.85 14.21L28.04 16.20L26.36 16.20L26.36 17.15L27.43 17.15C28.52 17.15 28.94 16.76 29.27 15.93L32.86 7.13L31.74 7.13ZM46.65 5.53C47.29 5.53 47.53 5.22 47.53 4.82L47.53 4.59C47.53 4.19 47.29 3.88 46.65 3.88C46.00 3.88 45.77 4.19 45.77 4.59L45.77 4.82C45.77 5.22 46.00 5.53 46.65 5.53ZM43.48 14.35L49.64 14.35L49.64 13.40L47.21 13.40L47.21 7.13L43.48 7.13L43.48 8.08L46.09 8.08L46.09 13.40L43.48 13.40ZM52.89 14.35L52.89 9.34C52.89 8.39 53.79 7.95 54.68 7.95C55.79 7.95 56.39 8.60 56.39 9.91L56.39 14.35L57.51 14.35L57.51 9.72C57.51 7.97 56.52 6.96 55.01 6.96C53.82 6.96 53.26 7.59 52.95 8.30L52.89 8.30L52.89 7.13L51.77 7.13L51.77 14.35ZM63.71 14.35L66.30 7.13L65.20 7.13L64.16 10.15L63.04 13.41L62.99 13.41L61.87 10.15L60.83 7.13L59.70 7.13L62.29 14.35ZM71.40 14.52C73.43 14.52 74.68 13.03 74.68 10.74C74.68 8.44 73.43 6.96 71.40 6.96C69.37 6.96 68.12 8.44 68.12 10.74C68.12 13.03 69.37 14.52 71.40 14.52ZM71.40 13.55C70.15 13.55 69.31 12.81 69.31 11.26L69.31 10.22C69.31 8.67 70.15 7.92 71.40 7.92C72.65 7.92 73.49 8.67 73.49 10.22L73.49 11.26C73.49 12.81 72.65 13.55 71.40 13.55ZM77.07 14.35L78.19 14.35L78.19 11.73L79.44 10.60L82.25 14.35L83.64 14.35L80.29 9.95L83.29 7.13L81.91 7.13L79.51 9.34L78.25 10.53L78.19 10.53L78.19 3.99L77.07 3.99ZM88.33 14.52C89.75 14.52 90.79 13.82 91.22 12.85L90.40 12.29C90.02 13.08 89.29 13.55 88.33 13.55C86.97 13.55 86.11 12.63 86.11 11.35L86.11 11.02L91.46 11.02L91.46 10.49C91.46 8.44 90.20 6.96 88.26 6.96C86.30 6.96 84.94 8.44 84.94 10.75C84.94 13.03 86.25 14.52 88.33 14.52ZM88.26 7.88C89.45 7.88 90.26 8.75 90.26 10.02L90.26 10.18L86.11 10.18L86.11 10.08C86.11 8.82 87.02 7.88 88.26 7.88ZM93.48 14.35L99.51 14.35L99.51 13.40L96.71 13.40L96.71 10.28C96.71 9.16 97.45 8.25 98.87 8.25L100.23 8.25L100.23 7.13L99.22 7.13C97.71 7.13 97.06 7.99 96.78 8.95L96.71 8.95L96.71 7.13L93.48 7.13L93.48 8.08L95.59 8.08L95.59 13.40L93.48 13.40Z"></path></g><defs data-v-423bf9ae=""><linearGradient data-v-423bf9ae="" gradientTransform="rotate(25)" id="84ed0950-9439-468c-9c7c-6f3b105ef73e" x1="0%" y1="0%" x2="100%" y2="0%"><stop data-v-423bf9ae="" offset="0%" style="stop-color: rgb(0, 21, 214); stop-opacity: 1;"></stop><stop data-v-423bf9ae="" offset="100%" style="stop-color: rgb(9, 137, 251); stop-opacity: 1;"></stop></linearGradient></defs><g data-v-423bf9ae="" id="3c824d88-52fa-4221-8e4f-52e2737bb114" transform="matrix(1.0173859316671514,0,0,1.0173859316671514,-11.320310292342576,-5.100334210059401)" stroke="none" fill="url(#84ed0950-9439-468c-9c7c-6f3b105ef73e)"><path d="M30.77 44.23H23.08v15.381h15.381V44.23H30.77zm3.85 7.691v3.85H26.93v-7.71h7.691v3.86zM53.85 59.611h-7.7v3.85h-3.839V74.99h3.839v-7.689h7.7v7.689h3.839V63.461H53.85zM69.23 44.23H61.54v15.381H76.921V44.23H69.23zm3.84 7.691v3.85H65.38v-7.71h7.691v3.86z"></path><path d="M84.609 28.841v-3.85h-3.85V17.301h-3.84v-3.84H69.229v-3.85H61.54v-3.84H38.46v3.84H30.77v3.85H23.08v3.84h-3.84V24.991h-3.85v3.85h-3.84v38.461h3.84v3.85h3.85v3.84h3.84v3.851H30.77V94.233h38.462v-15.39H76.922V74.99h3.84v-3.84h3.85V67.3h3.84V28.839h-3.843zm0 7.69v26.931h-3.85v3.84h-3.84v3.85h-3.85v3.84H65.38v15.382h-7.691v-7.691h-3.84v7.691H46.15v-7.691h-3.84v7.691H34.62V74.99H26.93v-3.84h-3.85V67.3h-3.84v-3.84h-3.85V32.679h3.85v-3.84h3.84V21.149h3.85v-3.85h7.691v-3.84h7.691v-3.85H57.69v3.85h7.691v3.84h7.691v3.85h3.85V28.839h3.84v3.84h3.85v3.852z"></path></g><!----></svg>